<?xml version="1.0" encoding="utf-8"?>
<!-- Generator: Adobe Illustrator 25.0.1, SVG Export Plug-In . SVG Version: 6.00 Build 0)  -->
<svg version="1.0" id="Layer_1" xmlns="http://www.w3.org/2000/svg" xmlns:xlink="http://www.w3.org/1999/xlink" x="0px" y="0px"
	 viewBox="0 0 429.7 276.6" style="enable-background:new 0 0 429.7 276.6;" xml:space="preserve">
<style type="text/css">
	.st0{fill:#5865F2;}
</style>
<g>
	<g id="g881" transform="scale(4.2382754)">
		<g>
			<g id="g879">
				<path id="path861" class="st0" d="M26.8,28.5c-1.3-0.6-2.6-1-4-1.3c-0.2,0.3-0.4,0.7-0.5,1.1c-1.5-0.2-3-0.2-4.5,0
					c-0.1-0.3-0.3-0.8-0.5-1.1c-1.4,0.2-2.8,0.7-4,1.3c-2.5,3.8-3.2,7.6-2.9,11.3c1.7,1.3,3.3,2,4.9,2.5c0.4-0.5,0.8-1.1,1.1-1.7
					c-0.6-0.2-1.1-0.5-1.7-0.8c0.1-0.1,0.3-0.2,0.4-0.3c3.2,1.5,6.7,1.5,9.9,0c0.1,0.1,0.3,0.2,0.4,0.3c-0.5,0.3-1.1,0.6-1.7,0.8
					c0.3,0.6,0.7,1.2,1.1,1.7c1.6-0.5,3.2-1.3,4.9-2.5C30.1,35.5,29,31.8,26.8,28.5z M16.8,37.5c-1,0-1.8-0.9-1.8-2
					c0-1.1,0.8-2,1.8-2c1,0,1.8,0.9,1.8,2C18.5,36.6,17.7,37.5,16.8,37.5z M23.2,37.5c-1,0-1.8-0.9-1.8-2c0-1.1,0.8-2,1.8-2
					c1,0,1.8,0.9,1.8,2C25,36.6,24.2,37.5,23.2,37.5z"/>
				<path id="path863" class="st0" d="M36.4,31.1h4.2c1,0,1.9,0.2,2.6,0.5c0.7,0.3,1.2,0.8,1.6,1.3c0.3,0.6,0.5,1.2,0.5,2
					c0,0.7-0.2,1.4-0.5,2c-0.4,0.6-0.9,1.1-1.7,1.4s-1.7,0.5-2.8,0.5h-3.9V31.1z M40.3,36.8c0.7,0,1.2-0.2,1.6-0.5
					c0.4-0.3,0.5-0.8,0.5-1.4c0-0.6-0.2-1-0.5-1.3c-0.3-0.3-0.8-0.5-1.5-0.5h-1.3v3.8H40.3z"/>
				<path id="path865" class="st0" d="M51.5,38.7c-0.6-0.2-1.1-0.4-1.6-0.7v-1.8c0.4,0.3,0.8,0.5,1.4,0.7c0.6,0.2,1.2,0.3,1.7,0.3
					c0.3,0,0.5,0,0.6-0.1c0.1-0.1,0.2-0.2,0.2-0.2c0-0.1,0-0.2-0.1-0.3c-0.1-0.1-0.2-0.1-0.4-0.2l-1.3-0.3c-0.7-0.2-1.3-0.4-1.6-0.7
					C50.2,35,50,34.6,50,34.1c0-0.4,0.1-0.8,0.4-1.1c0.3-0.3,0.7-0.6,1.2-0.7c0.5-0.2,1.1-0.3,1.8-0.3c0.6,0,1.2,0.1,1.7,0.2
					c0.5,0.1,0.9,0.3,1.2,0.5v1.7c-0.3-0.2-0.7-0.4-1.2-0.5c-0.4-0.1-0.9-0.2-1.4-0.2c-0.7,0-1,0.1-1,0.4c0,0.1,0.1,0.2,0.2,0.2
					c0.1,0.1,0.3,0.1,0.6,0.2l1.1,0.2c0.7,0.1,1.2,0.3,1.6,0.7c0.3,0.3,0.5,0.8,0.5,1.4c0,0.7-0.3,1.2-0.9,1.6
					c-0.6,0.4-1.4,0.6-2.4,0.6C52.7,39,52.1,38.9,51.5,38.7L51.5,38.7z"/>
				<path id="path867" class="st0" d="M59.1,38.5c-0.6-0.3-1.1-0.7-1.4-1.2c-0.3-0.5-0.5-1.1-0.5-1.8c0-0.7,0.2-1.2,0.5-1.8
					s0.8-0.9,1.4-1.2c0.6-0.3,1.4-0.4,2.2-0.4c1.1,0,2,0.2,2.7,0.7v2c-0.2-0.2-0.5-0.3-0.9-0.4s-0.7-0.2-1.1-0.2
					c-0.7,0-1.2,0.1-1.6,0.4c-0.4,0.2-0.6,0.6-0.6,1c0,0.4,0.2,0.7,0.5,1c0.4,0.3,0.9,0.4,1.6,0.4c0.4,0,0.7-0.1,1.1-0.2
					c0.3-0.1,0.6-0.2,0.9-0.4v1.9c-0.8,0.5-1.7,0.7-2.7,0.7C60.5,39,59.7,38.8,59.1,38.5L59.1,38.5z"/>
				<path id="path869" class="st0" d="M66.7,38.5c-0.6-0.3-1.1-0.7-1.4-1.3c-0.3-0.5-0.5-1.1-0.5-1.8c0-0.7,0.2-1.2,0.5-1.8
					c0.3-0.5,0.8-0.9,1.4-1.2c0.6-0.3,1.3-0.4,2.2-0.4c0.9,0,1.6,0.1,2.2,0.4c0.6,0.3,1.1,0.7,1.4,1.2c0.3,0.5,0.5,1.1,0.5,1.8
					c0,0.7-0.2,1.3-0.5,1.8c-0.3,0.5-0.8,1-1.4,1.3c-0.6,0.3-1.3,0.5-2.2,0.5C68.1,38.9,67.4,38.8,66.7,38.5L66.7,38.5z M70,36.5
					c0.3-0.3,0.4-0.6,0.4-1.1s-0.1-0.8-0.4-1c-0.3-0.3-0.6-0.4-1.1-0.4c-0.5,0-0.8,0.1-1.1,0.4c-0.3,0.3-0.4,0.6-0.4,1
					s0.1,0.8,0.4,1.1c0.3,0.3,0.6,0.4,1.1,0.4C69.4,36.9,69.7,36.8,70,36.5z"/>
				<path id="path871" class="st0" d="M79.5,32.4v2.4c-0.3-0.2-0.6-0.3-1.1-0.3c-0.6,0-1,0.2-1.3,0.5c-0.3,0.4-0.5,0.9-0.5,1.6v2H74
					v-6.4h2.6v2c0.1-0.7,0.4-1.3,0.7-1.6c0.3-0.4,0.7-0.5,1.2-0.5C78.9,32.2,79.2,32.3,79.5,32.4z"/>
				<path id="path873" class="st0" d="M88.2,30.8v7.9h-2.6v-1.4c-0.2,0.5-0.6,1-1,1.2c-0.5,0.3-1,0.4-1.7,0.4
					c-0.6,0-1.1-0.1-1.6-0.4c-0.4-0.3-0.8-0.7-1-1.2c-0.2-0.5-0.4-1.1-0.4-1.7c0-0.7,0.1-1.3,0.4-1.8c0.3-0.5,0.6-0.9,1.1-1.2
					c0.5-0.3,1-0.4,1.6-0.4c1.3,0,2.1,0.6,2.5,1.7v-2.9H88.2z M85.2,36.5c0.3-0.3,0.4-0.6,0.4-1c0-0.4-0.1-0.7-0.4-1
					c-0.3-0.3-0.6-0.4-1.1-0.4c-0.4,0-0.8,0.1-1.1,0.4c-0.3,0.3-0.4,0.6-0.4,1c0,0.4,0.1,0.8,0.4,1c0.3,0.3,0.6,0.4,1.1,0.4
					C84.6,36.9,84.9,36.8,85.2,36.5L85.2,36.5z"/>
				<path id="path875" class="st0" d="M47.5,33c0.7,0,1.3-0.5,1.3-1.2s-0.6-1.2-1.3-1.2c-0.7,0-1.3,0.5-1.3,1.2S46.8,33,47.5,33z"/>
				<path id="path877" class="st0" d="M46.2,33.8c0.8,0.4,1.8,0.4,2.6,0v4.9h-2.6V33.8z"/>
			</g>
		</g>
	</g>
</g>
</svg>
